<svg xmlns="http://www.w3.org/2000/svg" version="1.1" xmlns:xlink="http://www.w3.org/1999/xlink" xmlns:svgjs="http://svgjs.dev/svgjs" width="1000" height="894" viewBox="0 0 1000 894"><g transform="matrix(1,0,0,1,0.6782823482658387,0.3619433198380193)"><svg viewBox="0 0 276 247" data-background-color="#ffffff" preserveAspectRatio="xMidYMid meet" height="894" width="1000" xmlns="http://www.w3.org/2000/svg" xmlns:xlink="http://www.w3.org/1999/xlink"><defs></defs><g id="tight-bounds" transform="matrix(1,0,0,1,-0.18720592409823666,-0.09999999999999432)"><svg viewBox="0 0 276.3744118522196 247.2" height="247.2" width="276.3744118522196"><g><svg viewBox="0 0 395.52000000000004 353.76843805742783" height="247.2" width="276.3744118522196"><g transform="matrix(1,0,0,1,0,255.39435465185323)"><svg viewBox="0 0 395.52000000000004 98.3740834055746" height="98.3740834055746" width="395.52000000000004"><g><svg viewBox="0 0 395.52000000000004 98.3740834055746" height="98.3740834055746" width="395.52000000000004"><g><svg viewBox="0 0 395.52000000000004 53.058279922492176" height="53.058279922492176" width="395.52000000000004"><g transform="matrix(1,0,0,1,0,0)"><svg width="395.52000000000004" viewBox="1.3700000047683716 -42.189998626708984 327.57000732421875 43.94999694824219" height="53.058279922492176" data-palette-color="#e6b17e"><g class="undefined-text-0" data-fill-palette-color="primary" id="text-0"><path d="M32.79-26.61L32.79-26.61 31.35-25.66Q30.03-27.61 27.92-28.75 25.81-29.88 23.34-29.88L23.34-29.88Q19.34-29.88 16.5-27.05 13.67-24.22 13.67-20.21 13.67-16.21 16.5-13.38 19.34-10.55 23.34-10.55L23.34-10.55Q25.81-10.55 27.92-11.69 30.03-12.84 31.35-14.79L31.35-14.79 32.76-13.77Q31.2-11.47 28.71-10.13 26.22-8.79 23.34-8.79L23.34-8.79Q21.02-8.79 18.91-9.69 16.8-10.6 15.26-12.13 13.72-13.67 12.82-15.78 11.91-17.9 11.91-20.21 11.91-22.53 12.82-24.65 13.72-26.76 15.26-28.3 16.8-29.83 18.91-30.74 21.02-31.64 23.34-31.64L23.34-31.64Q26.25-31.64 28.74-30.29 31.23-28.93 32.79-26.61ZM35.69-28.61L35.69-28.61 34.23-27.66Q32.42-30.3 29.55-31.85 26.68-33.4 23.34-33.4L23.34-33.4Q19.75-33.4 16.72-31.63 13.7-29.86 11.93-26.83 10.16-23.8 10.16-20.21 10.16-16.63 11.93-13.6 13.7-10.57 16.72-8.8 19.75-7.03 23.34-7.03L23.34-7.03Q26.68-7.03 29.57-8.59 32.45-10.16 34.25-12.82L34.25-12.82 35.69-11.82Q33.64-8.79 30.38-7.03 27.12-5.27 23.34-5.27L23.34-5.27Q19.29-5.27 15.84-7.28 12.4-9.28 10.4-12.72 8.4-16.16 8.4-20.21 8.4-24.27 10.4-27.71 12.4-31.15 15.84-33.15 19.29-35.16 23.34-35.16L23.34-35.16Q27.12-35.16 30.38-33.4 33.64-31.64 35.69-28.61ZM38.62-30.57L38.62-30.57 37.16-29.61Q34.86-32.98 31.21-34.95 27.56-36.91 23.34-36.91L23.34-36.91Q19.95-36.91 16.85-35.6 13.75-34.28 11.51-32.04 9.28-29.81 7.96-26.71 6.64-23.61 6.64-20.21 6.64-16.82 7.96-13.72 9.28-10.62 11.51-8.39 13.75-6.15 16.85-4.83 19.95-3.52 23.34-3.52L23.34-3.52Q27.59-3.52 31.23-5.49 34.86-7.47 37.16-10.84L37.16-10.84 38.57-9.79Q36.04-6.08 32.02-3.92 28-1.76 23.34-1.76L23.34-1.76Q18.33-1.76 14.09-4.24 9.84-6.71 7.36-10.96 4.88-15.21 4.88-20.21 4.88-25.22 7.36-29.47 9.84-33.72 14.09-36.19 18.33-38.67 23.34-38.67L23.34-38.67Q28.03-38.67 32.06-36.49 36.08-34.3 38.62-30.57ZM41.5-32.57L41.5-32.57 40.04-31.62Q37.26-35.69 32.85-38.06 28.44-40.43 23.34-40.43L23.34-40.43Q19.24-40.43 15.49-38.83 11.74-37.23 9.03-34.52 6.32-31.81 4.72-28.06 3.13-24.32 3.13-20.21 3.13-16.11 4.72-12.37 6.32-8.62 9.03-5.91 11.74-3.2 15.49-1.6 19.24 0 23.34 0L23.34 0Q28.44 0 32.86-2.39 37.28-4.79 40.06-8.86L40.06-8.86 41.48-7.79Q38.45-3.39 33.67-0.82 28.88 1.76 23.34 1.76L23.34 1.76Q18.87 1.76 14.81 0.01 10.74-1.73 7.8-4.68 4.86-7.62 3.11-11.68 1.37-15.75 1.37-20.21 1.37-24.68 3.11-28.75 4.86-32.81 7.8-35.75 10.74-38.7 14.81-40.44 18.87-42.19 23.34-42.19L23.34-42.19Q28.91-42.19 33.69-39.6 38.48-37.01 41.5-32.57ZM69.75-11.87L62.33-11.87 63.03-13.62 69.04-13.62 69.75-11.87ZM71.16-8.35L60.96-8.35 61.64-10.11 70.41-10.11 71.16-8.35ZM72.53-4.83L59.59-4.83 60.28-6.59 71.8-6.59 72.53-4.83ZM60.35-38.06L45.31 0 43.41 0 59.4-40.43 61.3-40.43 77.27 0 75.39 0 60.35-38.06ZM47.19 0L60.57-33.89 61.57-31.64 49.07 0 47.19 0ZM50.97 0L62.52-29.25 63.45-26.83 52.88 0 50.97 0ZM54.76 0L64.38-24.41 65.31-21.95 56.64 0 54.76 0ZM72.63-40.43L88.62 0 86.72 0 70.75-40.43 72.63-40.43ZM66.97-40.43L68.85-40.43 84.84 0 82.96 0 66.97-40.43ZM63.18-40.43L65.06-40.43 81.05 0 79.15 0 63.18-40.43ZM104-14.06L104 0 102.24 0 102.24-40.43 121.7-40.43 121.7-38.67 104-38.67 104-36.91 121.7-36.91 121.7-35.16 104-35.16 104-33.4 121.7-33.4 121.7-31.64 104-31.64 104-22.85 120.87-22.85 120.87-21.09 104-21.09 104-19.34 120.87-19.34 120.87-17.58 104-17.58 104-15.82 120.87-15.82 120.87-14.06 104-14.06ZM100.48-40.43L100.48 0 98.73 0 98.73-40.43 100.48-40.43ZM96.97-40.43L96.97 0 95.21 0 95.21-40.43 96.97-40.43ZM93.45-40.43L93.45 0 91.69 0 91.69-40.43 93.45-40.43ZM134.64-40.43L134.64 0 132.88 0 132.88-40.43 134.64-40.43ZM131.12-40.43L131.12 0 129.36 0 129.36-40.43 131.12-40.43ZM127.6-40.43L127.6 0 125.85 0 125.85-40.43 127.6-40.43ZM138.15-15.82L138.15-8.79 156.85-8.79 156.85-7.03 138.15-7.03 138.15-5.27 156.85-5.27 156.85-3.52 138.15-3.52 138.15-1.76 156.85-1.76 156.85 0 136.39 0 136.39-40.43 156.85-40.43 156.85-38.67 138.15-38.67 138.15-36.91 156.85-36.91 156.85-35.16 138.15-35.16 138.15-33.4 156.85-33.4 156.85-31.64 138.15-31.64 138.15-24.61 147.75-24.61 147.75-22.85 138.15-22.85 138.15-21.09 147.75-21.09 147.75-19.34 138.15-19.34 138.15-17.58 147.75-17.58 147.75-15.82 138.15-15.82ZM186.76-38.67L160.39-38.67 160.39-40.43 186.76-40.43 186.76-38.67ZM186.76-35.16L160.39-35.16 160.39-36.91 186.76-36.91 186.76-35.16ZM167.42-31.64L160.39-31.64 160.39-33.4 186.76-33.4 186.76-31.64 179.73-31.64 179.73 0 177.97 0 177.97-31.64 176.21-31.64 176.21 0 174.45 0 174.45-31.64 172.7-31.64 172.7 0 170.94 0 170.94-31.64 169.18-31.64 169.18 0 167.42 0 167.42-31.64ZM199.52-40.43L199.52 0 197.77 0 197.77-40.43 199.52-40.43ZM196.01-40.43L196.01 0 194.25 0 194.25-40.43 196.01-40.43ZM192.49-40.43L192.49 0 190.73 0 190.73-40.43 192.49-40.43ZM203.04-15.82L203.04-8.79 221.74-8.79 221.74-7.03 203.04-7.03 203.04-5.27 221.74-5.27 221.74-3.52 203.04-3.52 203.04-1.76 221.74-1.76 221.74 0 201.28 0 201.28-40.43 221.74-40.43 221.74-38.67 203.04-38.67 203.04-36.91 221.74-36.91 221.74-35.16 203.04-35.16 203.04-33.4 221.74-33.4 221.74-31.64 203.04-31.64 203.04-24.61 212.63-24.61 212.63-22.85 203.04-22.85 203.04-21.09 212.63-21.09 212.63-19.34 203.04-19.34 203.04-17.58 212.63-17.58 212.63-15.82 203.04-15.82ZM239.34-18.36L239.34-20.12 249.94-20.12Q252.35-20.12 254.03-21.68 255.7-23.24 255.7-26.12L255.7-26.12Q255.7-28.25 253.94-29.94 252.18-31.64 249.94-31.64L249.94-31.64 234.85-31.64 234.85 0 233.09 0 233.09-33.4 249.94-33.4Q252.91-33.4 255.19-31.19 257.46-28.98 257.46-26.12L257.46-26.12Q257.46-22.61 255.26-20.48 253.06-18.36 249.94-18.36L249.94-18.36 239.34-18.36ZM239.34-14.84L239.34-16.6 249.94-16.6Q253.74-16.6 256.48-19.27 259.21-21.95 259.21-26.12L259.21-26.12Q259.21-29.71 256.42-32.43 253.62-35.16 249.94-35.16L249.94-35.16 231.33-35.16 231.33 0 229.57 0 229.57-36.91 249.94-36.91Q252.84-36.91 255.39-35.42 257.94-33.94 259.46-31.43 260.97-28.93 260.97-26.12L260.97-26.12Q260.97-21.31 257.71-18.08 254.45-14.84 249.94-14.84L249.94-14.84 239.34-14.84ZM239.34-11.33L239.34-13.09 249.94-13.09Q253.35-13.09 256.28-14.77 259.21-16.46 260.97-19.47 262.73-22.49 262.73-26.12L262.73-26.12Q262.73-29.42 260.98-32.31 259.24-35.21 256.28-36.94 253.33-38.67 249.94-38.67L249.94-38.67 227.82-38.67 227.82 0 226.06 0 226.06-40.43 249.94-40.43Q253.77-40.43 257.14-38.46 260.51-36.5 262.5-33.19 264.49-29.88 264.49-26.12L264.49-26.12Q264.49-21.78 262.62-18.48 260.75-15.19 257.55-13.33L257.55-13.33 262.09 0 260.24 0 255.89-12.5Q254.92-12.11 254.4-11.96L254.4-11.96 258.48 0 256.63 0 252.65-11.55Q252.43-11.5 251.08-11.38L251.08-11.38 254.87 0 253.01 0 249.28-11.33 247.69-11.33 251.25 0 249.4 0 245.81-11.33 239.34-11.33ZM238.36-28.13L238.36 0 236.61 0 236.61-29.88 249.94-29.88Q251.57-29.88 252.76-28.77 253.94-27.66 253.94-26.12L253.94-26.12Q253.94-21.88 249.94-21.88L249.94-21.88 239.34-21.88 239.34-23.63 249.94-23.63Q250.99-23.63 251.58-24.18 252.18-24.73 252.18-26.12L252.18-26.12Q252.18-26.98 251.54-27.55 250.89-28.13 249.94-28.13L249.94-28.13 238.36-28.13ZM278.79 0L278.79-40.43 280.55-40.43 280.55 0 278.79 0ZM275.28 0L275.28-40.43 277.03-40.43 277.03 0 275.28 0ZM271.76 0L271.76-40.43 273.52-40.43 273.52 0 271.76 0ZM268.24 0L268.24-40.43 270-40.43 270 0 268.24 0ZM310.06-11.87L302.64-11.87 303.35-13.62 309.36-13.62 310.06-11.87ZM311.48-8.35L301.27-8.35 301.96-10.11 310.72-10.11 311.48-8.35ZM312.85-4.83L299.91-4.83 300.59-6.59 312.11-6.59 312.85-4.83ZM300.66-38.06L285.62 0 283.72 0 299.71-40.43 301.62-40.43 317.58 0 315.7 0 300.66-38.06ZM287.5 0L300.88-33.89 301.88-31.64 289.38 0 287.5 0ZM291.29 0L302.84-29.25 303.76-26.83 293.19 0 291.29 0ZM295.07 0L304.69-24.41 305.62-21.95 296.95 0 295.07 0ZM312.94-40.43L328.94 0 327.03 0 311.06-40.43 312.94-40.43ZM307.28-40.43L309.16-40.43 325.15 0 323.27 0 307.28-40.43ZM303.5-40.43L305.38-40.43 321.37 0 319.46 0 303.5-40.43Z" fill="#e6b17e" data-fill-palette-color="primary"></path></g></svg></g></svg></g><g transform="matrix(1,0,0,1,0,65.58406641347443)"><svg viewBox="0 0 395.52000000000004 32.79001699210016" height="32.79001699210016" width="395.52000000000004"><g transform="matrix(1,0,0,1,0,0)"><svg width="395.52000000000004" viewBox="1 -35.54999923706055 573.52001953125 47.54999923706055" height="32.79001699210016" data-palette-color="#99592a"><path d="M23.55 0L7.8 0 7.8-0.5 9.85-1Q11.9-1.45 11.9-3.5L11.9-3.5 11.9-32 7.65-32Q5.8-32 5-31.03 4.2-30.05 3.3-28.35L3.3-28.35 1.5-24.85 1-24.85 1.25-33 30.1-33 30.3-24.85 29.8-24.85 28-28.35Q27.15-30.05 26.35-31.03 25.55-32 23.7-32L23.7-32 19.45-32 19.45-3.5Q19.45-1.45 21.5-1L21.5-1 23.55-0.5 23.55 0ZM53.23 0L41.53 0 41.53-0.5 42.13-0.7Q43.93-1.3 43.93-3.2L43.93-3.2 43.93-29.9Q43.93-30.95 43.58-31.45 43.23-31.95 42.23-32.2L42.23-32.2 41.48-32.4 41.48-32.9 50.28-35.05 51.08-34.6 50.88-27.55 50.88-21.3Q52.63-22.75 54.66-23.78 56.68-24.8 59.13-24.8L59.13-24.8Q62.38-24.8 64.31-22.95 66.23-21.1 66.23-17.25L66.23-17.25 66.23-3.15Q66.23-2.15 66.63-1.55 67.03-0.95 68.03-0.65L68.03-0.65 68.43-0.5 68.43 0 56.73 0 56.73-0.5 57.33-0.65Q59.13-1.25 59.13-3.2L59.13-3.2 59.13-18.9Q59.13-20.9 58.46-21.65 57.78-22.4 56.08-22.4L56.08-22.4Q54.98-22.4 53.68-21.98 52.38-21.55 51.03-20.5L51.03-20.5 51.03-3.1Q51.03-1.15 52.83-0.6L52.83-0.6 53.23-0.5 53.23 0ZM85.41-27.4L85.41-27.4Q83.71-27.4 82.54-28.48 81.36-29.55 81.36-31.2L81.36-31.2Q81.36-32.9 82.54-33.95 83.71-35 85.41-35L85.41-35Q87.11-35 88.26-33.95 89.41-32.9 89.41-31.2L89.41-31.2Q89.41-29.55 88.26-28.48 87.11-27.4 85.41-27.4ZM91.21 0L79.51 0 79.51-0.5 80.21-0.7Q81.21-1 81.59-1.6 81.96-2.2 81.96-3.2L81.96-3.2 81.96-18.85Q81.96-19.9 81.59-20.43 81.21-20.95 80.21-21.15L80.21-21.15 79.51-21.3 79.51-21.8 88.66-24.75 89.16-24.25 89.01-17.15 89.01-3.15Q89.01-2.15 89.39-1.55 89.76-0.95 90.71-0.65L90.71-0.65 91.21-0.5 91.21 0ZM115.39 0L102.44 0 102.44-0.5 103.19-0.7Q104.19-1 104.57-1.6 104.94-2.2 104.94-3.15L104.94-3.15 104.94-18.8Q104.94-19.9 104.57-20.43 104.19-20.95 103.19-21.15L103.19-21.15 102.44-21.35 102.44-21.85 111.04-24.75 111.54-24.25 111.99-19.95 111.99-19.55Q112.69-20.95 113.82-22.13 114.94-23.3 116.32-24.05 117.69-24.8 119.04-24.8L119.04-24.8Q120.94-24.8 121.94-23.75 122.94-22.7 122.94-21.1L122.94-21.1Q122.94-19.4 121.97-18.48 120.99-17.55 119.64-17.55L119.64-17.55Q117.54-17.55 115.94-19.65L115.94-19.65 115.84-19.75Q115.34-20.45 114.69-20.53 114.04-20.6 113.49-19.9L113.49-19.9Q112.99-19.45 112.67-18.82 112.34-18.2 112.04-17.4L112.04-17.4 112.04-3.45Q112.04-1.45 113.79-0.95L113.79-0.95 115.39-0.5 115.39 0ZM142.18 0.75L142.18 0.75Q139.73 0.75 137.78 0.18 135.83-0.4 134.18-1.25L134.18-1.25 134.23-7.2 134.73-7.2 136.43-4.2Q137.53-2.2 138.85-1.23 140.18-0.25 142.23-0.25L142.23-0.25Q144.63-0.25 146.1-1.33 147.58-2.4 147.58-4.2L147.58-4.2Q147.58-5.85 146.53-6.9 145.48-7.95 142.63-8.8L142.63-8.8 140.53-9.45Q137.48-10.35 135.73-12.25 133.98-14.15 133.98-16.9L133.98-16.9Q133.98-20.2 136.58-22.5 139.18-24.8 144.03-24.8L144.03-24.8Q145.98-24.8 147.7-24.38 149.43-23.95 151.03-23.1L151.03-23.1 150.73-17.7 150.23-17.7 148.48-20.8Q147.53-22.45 146.6-23.13 145.68-23.8 143.83-23.8L143.83-23.8Q142.13-23.8 140.63-22.85 139.13-21.9 139.13-20.15L139.13-20.15Q139.13-18.45 140.4-17.45 141.68-16.45 144.18-15.6L144.18-15.6 146.43-14.95Q150.03-13.85 151.58-11.93 153.13-10 153.13-7.3L153.13-7.3Q153.13-3.65 150.25-1.45 147.38 0.75 142.18 0.75ZM173.86 0.75L173.86 0.75Q170.66 0.75 168.88-0.85 167.11-2.45 167.11-5.95L167.11-5.95 167.11-23.05 163.66-23.05 163.66-23.55 164.86-23.75Q166.41-24.1 167.53-24.75 168.66-25.4 169.76-26.5L169.76-26.5 173.86-31.05 174.36-31.05 174.21-24.05 179.81-24.05 179.81-23.05 174.16-23.05 174.16-5.05Q174.16-3.3 174.93-2.4 175.71-1.5 176.91-1.5L176.91-1.5Q177.96-1.5 178.76-2.02 179.56-2.55 180.36-3.45L180.36-3.45 180.86-2.95Q179.86-1.25 178.11-0.25 176.36 0.75 173.86 0.75ZM196.04 12L196.04 12Q194.04 12 192.86 11 191.69 10 191.69 8.45L191.69 8.45Q191.69 7.05 192.69 6.2 193.69 5.35 194.94 5.35L194.94 5.35Q196.19 5.35 197.04 5.88 197.89 6.4 198.54 7.4L198.54 7.4 198.89 7.8Q199.99 9.3 201.09 7.75L201.09 7.75Q201.54 7 202.11 5.78 202.69 4.55 203.44 2.5L203.44 2.5 193.74-20.7Q193.39-21.65 192.99-22.23 192.59-22.8 191.69-23.2L191.69-23.2 190.79-23.55 190.79-24.05 203.24-24.05 203.24-23.6 202.24-23.2Q201.14-22.85 201.11-22.08 201.09-21.3 201.49-20.15L201.49-20.15 206.69-6.65 211.64-20.3Q212.04-21.45 211.94-22.23 211.84-23 210.69-23.3L210.69-23.3 209.64-23.55 209.64-24.05 216.59-24.05 216.59-23.55 215.49-23.2Q214.34-22.85 213.89-22.2 213.44-21.55 213.04-20.4L213.04-20.4 204.99 1.55Q203.04 6.8 201.09 9.4 199.14 12 196.04 12ZM260.4 0L247.3 0 247.3-0.5 247.95-0.65Q248.9-0.9 249.45-1.53 250-2.15 250-3.15L250-3.15Q250-5 250.03-6.83 250.05-8.65 250.05-10.5L250.05-10.5 250.05-23.05 247.25-23.05 247.25-23.6 248.35-23.8Q249.35-23.9 249.8-24.5 250.25-25.1 250.45-26.15L250.45-26.15Q250.95-28.1 251.93-29.58 252.9-31.05 254.15-32.3L254.15-32.3Q256.05-34.1 258.18-34.83 260.3-35.55 262.35-35.55L262.35-35.55Q264.35-35.55 266-34.73 267.65-33.9 267.65-32L267.65-32Q267.65-30.65 266.85-29.88 266.05-29.1 264.6-29.1L264.6-29.1Q263.4-29.1 262.4-29.75 261.4-30.4 260.45-32.05L260.45-32.05 259.75-32.9Q259.2-33.6 258.65-33.58 258.1-33.55 257.85-32.75L257.85-32.75Q257.5-31 257.33-28.65 257.15-26.3 257.15-24.05L257.15-24.05 262.75-24.05 262.75-23.05 257.15-23.05 257.15-3.25Q257.15-1.35 259.15-0.8L259.15-0.8 260.4-0.5 260.4 0ZM286.03 0.75L286.03 0.75Q282.23 0.75 279.43-0.83 276.63-2.4 275.11-5.3 273.58-8.2 273.58-12.1L273.58-12.1Q273.58-16 275.21-18.85 276.83-21.7 279.66-23.25 282.48-24.8 286.03-24.8L286.03-24.8Q289.58-24.8 292.38-23.28 295.18-21.75 296.81-18.9 298.43-16.05 298.43-12.1L298.43-12.1Q298.43-8.15 296.91-5.28 295.38-2.4 292.61-0.83 289.83 0.75 286.03 0.75ZM286.03-0.25L286.03-0.25Q287.78-0.25 288.83-1.25 289.88-2.25 290.36-4.8 290.83-7.35 290.83-12L290.83-12Q290.83-16.7 290.36-19.25 289.88-21.8 288.83-22.8 287.78-23.8 286.03-23.8L286.03-23.8Q284.28-23.8 283.21-22.8 282.13-21.8 281.66-19.25 281.18-16.7 281.18-12L281.18-12Q281.18-7.35 281.66-4.8 282.13-2.25 283.21-1.25 284.28-0.25 286.03-0.25ZM322.62 0L309.67 0 309.67-0.5 310.42-0.7Q311.42-1 311.79-1.6 312.17-2.2 312.17-3.15L312.17-3.15 312.17-18.8Q312.17-19.9 311.79-20.43 311.42-20.95 310.42-21.15L310.42-21.15 309.67-21.35 309.67-21.85 318.27-24.75 318.77-24.25 319.22-19.95 319.22-19.55Q319.92-20.95 321.04-22.13 322.17-23.3 323.54-24.05 324.92-24.8 326.27-24.8L326.27-24.8Q328.17-24.8 329.17-23.75 330.17-22.7 330.17-21.1L330.17-21.1Q330.17-19.4 329.19-18.48 328.22-17.55 326.87-17.55L326.87-17.55Q324.77-17.55 323.17-19.65L323.17-19.65 323.07-19.75Q322.57-20.45 321.92-20.53 321.27-20.6 320.72-19.9L320.72-19.9Q320.22-19.45 319.89-18.82 319.57-18.2 319.27-17.4L319.27-17.4 319.27-3.45Q319.27-1.45 321.02-0.95L321.02-0.95 322.62-0.5 322.62 0ZM373.08 0.75L373.08 0.75Q369.68 0.75 366.9-0.73 364.13-2.2 362.5-5.03 360.88-7.85 360.88-11.95L360.88-11.95Q360.88-16 362.65-18.88 364.43-21.75 367.4-23.28 370.38-24.8 373.93-24.8L373.93-24.8Q376.83-24.8 378.83-23.85 380.83-22.9 381.88-21.38 382.93-19.85 382.93-18.2L382.93-18.2Q382.93-16.8 382.08-16.03 381.23-15.25 379.88-15.25L379.88-15.25Q378.43-15.25 377.53-16.3 376.63-17.35 376.48-19.05L376.48-19.05Q376.43-20.15 376.53-20.93 376.63-21.7 376.53-22.5L376.53-22.5Q376.33-23.35 375.9-23.63 375.48-23.9 374.73-23.9L374.73-23.9Q371.68-23.9 370-21.25 368.33-18.6 368.33-12.8L368.33-12.8Q368.33-7.75 370.2-5.08 372.08-2.4 375.98-2.4L375.98-2.4Q378.33-2.4 379.78-3.25 381.23-4.1 382.58-5.8L382.58-5.8 383.08-5.4Q381.83-2.45 379.23-0.85 376.63 0.75 373.08 0.75ZM407.06 0.75L407.06 0.75Q403.26 0.75 400.46-0.83 397.66-2.4 396.13-5.3 394.61-8.2 394.61-12.1L394.61-12.1Q394.61-16 396.23-18.85 397.86-21.7 400.68-23.25 403.51-24.8 407.06-24.8L407.06-24.8Q410.61-24.8 413.41-23.28 416.21-21.75 417.83-18.9 419.46-16.05 419.46-12.1L419.46-12.1Q419.46-8.15 417.93-5.28 416.41-2.4 413.63-0.83 410.86 0.75 407.06 0.75ZM407.06-0.25L407.06-0.25Q408.81-0.25 409.86-1.25 410.91-2.25 411.38-4.8 411.86-7.35 411.86-12L411.86-12Q411.86-16.7 411.38-19.25 410.91-21.8 409.86-22.8 408.81-23.8 407.06-23.8L407.06-23.8Q405.31-23.8 404.23-22.8 403.16-21.8 402.68-19.25 402.21-16.7 402.21-12L402.21-12Q402.21-7.35 402.68-4.8 403.16-2.25 404.23-1.25 405.31-0.25 407.06-0.25ZM443.89 0L430.79 0 430.79-0.5 431.44-0.65Q432.39-0.9 432.94-1.53 433.49-2.15 433.49-3.15L433.49-3.15Q433.49-5 433.52-6.83 433.54-8.65 433.54-10.5L433.54-10.5 433.54-23.05 430.74-23.05 430.74-23.6 431.84-23.8Q432.84-23.9 433.29-24.5 433.74-25.1 433.94-26.15L433.94-26.15Q434.44-28.1 435.42-29.58 436.39-31.05 437.64-32.3L437.64-32.3Q439.54-34.1 441.67-34.83 443.79-35.55 445.84-35.55L445.84-35.55Q447.84-35.55 449.49-34.73 451.14-33.9 451.14-32L451.14-32Q451.14-30.65 450.34-29.88 449.54-29.1 448.09-29.1L448.09-29.1Q446.89-29.1 445.89-29.75 444.89-30.4 443.94-32.05L443.94-32.05 443.24-32.9Q442.69-33.6 442.14-33.58 441.59-33.55 441.34-32.75L441.34-32.75Q440.99-31 440.82-28.65 440.64-26.3 440.64-24.05L440.64-24.05 446.24-24.05 446.24-23.05 440.64-23.05 440.64-3.25Q440.64-1.35 442.64-0.8L442.64-0.8 443.89-0.5 443.89 0ZM470.07 0L456.97 0 456.97-0.5 457.62-0.65Q458.57-0.9 459.12-1.53 459.67-2.15 459.67-3.15L459.67-3.15Q459.67-5 459.7-6.83 459.72-8.65 459.72-10.5L459.72-10.5 459.72-23.05 456.92-23.05 456.92-23.6 458.02-23.8Q459.02-23.9 459.47-24.5 459.92-25.1 460.12-26.15L460.12-26.15Q460.62-28.1 461.6-29.58 462.57-31.05 463.82-32.3L463.82-32.3Q465.72-34.1 467.85-34.83 469.97-35.55 472.02-35.55L472.02-35.55Q474.02-35.55 475.67-34.73 477.32-33.9 477.32-32L477.32-32Q477.32-30.65 476.52-29.88 475.72-29.1 474.27-29.1L474.27-29.1Q473.07-29.1 472.07-29.75 471.07-30.4 470.12-32.05L470.12-32.05 469.42-32.9Q468.87-33.6 468.32-33.58 467.77-33.55 467.52-32.75L467.52-32.75Q467.17-31 467-28.65 466.82-26.3 466.82-24.05L466.82-24.05 472.42-24.05 472.42-23.05 466.82-23.05 466.82-3.25Q466.82-1.35 468.82-0.8L468.82-0.8 470.07-0.5 470.07 0ZM495.6-24.8L495.6-24.8Q498.85-24.8 501.15-23.48 503.45-22.15 504.68-19.88 505.9-17.6 505.9-14.7L505.9-14.7Q505.9-14.15 505.85-13.58 505.8-13 505.65-12.55L505.65-12.55 490.75-12.55Q490.8-7.15 492.68-4.78 494.55-2.4 498.25-2.4L498.25-2.4Q500.75-2.4 502.3-3.2 503.85-4 505.2-5.55L505.2-5.55 505.7-5.1Q504.15-2.35 501.58-0.8 499 0.75 495.4 0.75L495.4 0.75Q491.85 0.75 489.1-0.78 486.35-2.3 484.8-5.15 483.25-8 483.25-11.95L483.25-11.95Q483.25-16.05 485.05-18.93 486.85-21.8 489.68-23.3 492.5-24.8 495.6-24.8ZM495.45-23.8L495.45-23.8Q494-23.8 492.98-22.93 491.95-22.05 491.38-19.83 490.8-17.6 490.75-13.55L490.75-13.55 499.3-13.55Q499.8-19 498.9-21.4 498-23.8 495.45-23.8ZM529.99-24.8L529.99-24.8Q533.24-24.8 535.54-23.48 537.84-22.15 539.06-19.88 540.29-17.6 540.29-14.7L540.29-14.7Q540.29-14.15 540.24-13.58 540.19-13 540.04-12.55L540.04-12.55 525.14-12.55Q525.19-7.15 527.06-4.78 528.94-2.4 532.64-2.4L532.64-2.4Q535.14-2.4 536.69-3.2 538.24-4 539.59-5.55L539.59-5.55 540.09-5.1Q538.54-2.35 535.96-0.8 533.39 0.75 529.79 0.75L529.79 0.75Q526.24 0.75 523.49-0.78 520.74-2.3 519.19-5.15 517.64-8 517.64-11.95L517.64-11.95Q517.64-16.05 519.44-18.93 521.24-21.8 524.06-23.3 526.89-24.8 529.99-24.8ZM529.84-23.8L529.84-23.8Q528.39-23.8 527.36-22.93 526.34-22.05 525.76-19.83 525.19-17.6 525.14-13.55L525.14-13.55 533.69-13.55Q534.19-19 533.29-21.4 532.39-23.8 529.84-23.8ZM564.37-11.25L563.47-11.25 563.02-19.75Q565.37-20.6 566.82-22.4 568.27-24.2 568.27-26.75L568.27-26.75Q568.27-29.75 567.17-31.48 566.07-33.2 564.42-33.2L564.42-33.2Q562.97-33.2 562.19-32.2 561.42-31.2 560.97-29.5L560.97-29.5 560.32-27.1Q559.87-25.4 558.79-24.68 557.72-23.95 556.54-24.1 555.37-24.25 554.52-25.18 553.67-26.1 553.67-27.7L553.67-27.7Q553.67-29.7 555.14-31.15 556.62-32.6 558.92-33.4 561.22-34.2 563.72-34.2L563.72-34.2Q568.77-34.2 571.64-32.05 574.52-29.9 574.52-25.6L574.52-25.6Q574.52-22.65 573.07-20.6 571.62-18.55 569.34-17.28 567.07-16 564.62-15.3L564.62-15.3 564.37-11.25ZM563.52 0.75L563.52 0.75Q561.72 0.75 560.44-0.5 559.17-1.75 559.17-3.55L559.17-3.55Q559.17-5.3 560.44-6.58 561.72-7.85 563.52-7.85L563.52-7.85Q565.37-7.85 566.59-6.58 567.82-5.3 567.82-3.55L567.82-3.55Q567.82-1.75 566.59-0.5 565.37 0.75 563.52 0.75Z" opacity="1" transform="matrix(1,0,0,1,0,0)" fill="#99592a" class="undefined-text-1" data-fill-palette-color="secondary" id="text-1"></path></svg></g></svg></g></svg></g></svg></g><g transform="matrix(1,0,0,1,82.58860916505566,0)"><svg viewBox="0 0 230.34278166988872 230.34278166988872" height="230.34278166988872" width="230.34278166988872"><g><svg></svg></g><g id="icon-0"><svg viewBox="0 0 230.34278166988872 230.34278166988872" height="230.34278166988872" width="230.34278166988872"><g><path d="M0 115.171c0-63.607 51.564-115.171 115.171-115.171 63.607 0 115.171 51.564 115.172 115.171 0 63.607-51.564 115.171-115.172 115.172-63.607 0-115.171-51.564-115.171-115.172zM115.171 225.558c60.965 0 110.387-49.422 110.387-110.387 0-60.965-49.422-110.387-110.387-110.386-60.965 0-110.387 49.422-110.386 110.386 0 60.965 49.422 110.387 110.386 110.387z" data-fill-palette-color="accent" fill="#99592a" stroke="transparent"></path></g><g transform="matrix(1,0,0,1,58.24295749644354,45.758273179174466)"><svg viewBox="0 0 113.85686667700165 138.8262353115398" height="138.8262353115398" width="113.85686667700165"><g><svg xmlns="http://www.w3.org/2000/svg" xmlns:xlink="http://www.w3.org/1999/xlink" version="1.1" x="0" y="0" viewBox="0 0 82 99.98300170898438" enable-background="new 0 0 82 99.982" xml:space="preserve" width="113.85686667700165" height="138.8262353115398" class="icon-x-0" data-fill-palette-color="accent" id="x-0"><circle cx="41.007" cy="16.417" r="16" fill="#99592a" data-fill-palette-color="accent"></circle><path d="M63.654 36.983H19.112C5.431 36.983 0 49.255 0 57.464v37.598l19.655 0.254c2.979 0 5.467-2.332 6.407-4.332h-1.787c-1.751 0-3.925-2-3.927-4h5.826c-0.831-4-3.749-5.253-6.86-5.253L13 81.395V59.983h6.112l-0.007 18.902c4.635 0 8.504 2.098 9.395 8.098h24.912c0.91-6 4.859-8.098 9.496-8.098l-0.016-18.902H69v21.411l-5.934 0.336c-3.107 0-5.642 1.253-6.475 5.253h3.17c-0.008 2-1.371 3.379-3.089 3.761 0.913 2.71 3.04 4.506 6.058 4.506L82 95.062V57.464C82 49.255 77.335 36.983 63.654 36.983zM51 80.359v1.281c0 1.903-1.029 3.343-3.23 3.343H32.512c-1.948 0-3.512-1.246-3.512-3.343V65.983h23.273c3.605 0 6.473 3.302 6.471 7.181C58.746 76.974 56 80.357 51 80.359z" fill="#99592a" data-fill-palette-color="accent"></path><path d="M52.273 69.983H51v7.432c3 0.208 4.969-1.475 4.967-3.684C55.982 72.366 55.258 69.983 52.273 69.983z" fill="#99592a" data-fill-palette-color="accent"></path><path d="M53.512 90.983H28.395c-1.021 4-4.78 6.867-9.29 6.867l0.027 2.133H63v-2.146C58 97.837 54.535 94.983 53.512 90.983z" fill="#99592a" data-fill-palette-color="accent"></path></svg></g></svg></g></svg></g></svg></g><g></g></svg></g></svg><rect width="276.3744118522196" height="247.2" fill="none" stroke="none" visibility="hidden"></rect></g></svg></g></svg>